<svg width="141" height="164" viewBox="0 0 141 164" fill="none" xmlns="http://www.w3.org/2000/svg">
<path d="M68.3624 49.3006C57.5444 48.9992 46.9565 52.4582 38.4029 59.0882C29.8493 65.7181 23.8592 75.1088 21.4531 85.6602C19.0471 96.2116 20.374 107.271 25.2079 116.953C30.0417 126.636 38.0833 134.343 47.9626 138.762C57.8418 143.18 68.9474 144.036 79.3871 141.184C89.8267 138.332 98.9546 131.948 105.215 123.121C111.476 114.294 114.482 103.568 113.722 92.7729C112.961 81.9774 108.481 71.7796 101.045 63.9171L67.0599 96.0599L68.3624 49.3006Z" fill="#D898FF"/>
<path d="M67.4251 164C30.2604 164 0 133.26 0 95.5073C0 60.4723 26.0649 31.5114 59.5297 27.5179V17.1484H55.3342C53.2199 17.1484 51.5351 15.4033 51.5351 13.2891V3.85922C51.5351 1.71148 53.253 0 55.3342 0H79.5161C81.6303 0 83.3151 1.74504 83.3151 3.85922V13.2891C83.3151 15.4369 81.5973 17.1484 79.5161 17.1484H75.3206V27.4843C88.0392 28.9945 99.6676 34.1289 109.215 41.8138L114.699 36.2431L114.203 35.7397C112.717 34.2296 112.717 31.7798 114.203 30.2697L121.735 22.6184C123.222 21.1082 125.633 21.1082 127.12 22.6184L139.31 35.0014C140.797 36.5116 140.797 38.9613 139.31 40.4715L131.778 48.1228C130.291 49.6329 127.88 49.6329 126.393 48.1228L125.898 47.6194L120.414 53.1901C129.466 64.8349 134.85 79.5335 134.85 95.4737C134.85 133.26 104.59 164 67.4251 164ZM119.191 95.5073C119.191 66.5128 95.9674 42.9212 67.4248 42.9212C38.8823 42.9212 15.6584 66.5128 15.6584 95.5073C15.6584 124.502 38.8492 148.093 67.4248 148.093C95.9677 148.093 119.191 124.502 119.191 95.5073ZM94.5141 67.7209C96.0668 69.2981 96.1659 71.8486 94.7454 73.5265L77.567 93.9636C77.9965 97.1516 77.0384 100.474 74.6269 102.924C70.5635 107.051 63.9564 107.051 59.86 102.924C55.7967 98.796 55.7967 92.0843 59.86 87.9231C62.2716 85.4733 65.5421 84.5001 68.6805 84.9364L88.799 67.486C90.4835 66.043 92.9611 66.1436 94.5141 67.7209ZM70.2331 92.4199C68.5814 90.742 65.9055 90.742 64.2868 92.4199C62.635 94.0978 62.635 96.816 64.2868 98.4604C65.9385 100.138 68.6144 100.138 70.2331 98.4604C71.8849 96.7825 71.8849 94.0978 70.2331 92.4199Z" fill="#561A7B"/>
</svg>
